<?xml version="1.0" encoding="UTF-8"?>
<!DOCTYPE svg PUBLIC "-//W3C//DTD SVG 1.1//EN" "http://www.w3.org/Graphics/SVG/1.1/DTD/svg11.dtd">
<!-- Creator: CorelDRAW X8 -->
<svg xmlns="http://www.w3.org/2000/svg" xml:space="preserve" width="2.66706in" height="1.96023in" version="1.1" style="shape-rendering:geometricPrecision; text-rendering:geometricPrecision; image-rendering:optimizeQuality; fill-rule:evenodd; clip-rule:evenodd"
viewBox="0 0 2962 2177"
 xmlns:xlink="http://www.w3.org/1999/xlink">
 <defs>
  <style type="text/css">
   <![CDATA[
    .fil2 {fill:#050403}
    .fil16 {fill:#201914}
    .fil15 {fill:#201C18}
    .fil9 {fill:#20CD8B}
    .fil18 {fill:#23211C}
    .fil1 {fill:#2A5F49}
    .fil4 {fill:#2D1A12}
    .fil0 {fill:#3A8369}
    .fil21 {fill:#557A6C}
    .fil14 {fill:#987447}
    .fil22 {fill:#9DB1AF}
    .fil13 {fill:#A38051}
    .fil7 {fill:#A38E6F}
    .fil19 {fill:#B0B6BA}
    .fil11 {fill:#B1BABE}
    .fil12 {fill:#B8BDC0}
    .fil8 {fill:#BF0811}
    .fil20 {fill:#CACCCD}
    .fil23 {fill:#DC8576}
    .fil5 {fill:#E9E2D6}
    .fil17 {fill:#F0D9BA}
    .fil3 {fill:#F1DBBC}
    .fil10 {fill:#F1F1F1}
    .fil6 {fill:white}
   ]]>
  </style>
 </defs>
 <g id="Layer_x0020_1">
  <metadata id="CorelCorpID_0Corel-Layer"/>
  <g id="_2606298217888">
   <path class="fil0" d="M588 1297c39,1 36,-2 63,15 95,7 227,71 269,131 34,47 29,112 -1,159 -36,56 -59,55 -109,86l2 233 124 -10c1,-2 4,-5 5,-7l50 2 -2 -43 59 -9 2 -96c-4,-22 -2,-12 -9,-24 4,41 11,92 -11,119 -55,-7 -27,-2 -37,-70 -72,-3 -55,15 -55,-63l54 2c-8,-41 -15,-19 5,-50l0 -219c-16,-31 -7,-19 -59,-20l0 -85 53 3 0 -49 386 1 -1 82 -51 0 2 48 -128 1 2 235 152 5 -3 57 -53 3 2 46 -102 2 2 77 177 -1 2 62 -56 -1 1 5c20,14 20,15 54,18 26,2 52,-1 77,-4 0,-199 2,-113 -34,-137 -26,-18 -21,9 -27,-34 20,-25 -4,-18 51,-17 -5,-79 -2,-32 13,-50l-3 -258c-24,-43 -17,-6 -62,-33l7 -59 45 6 2 -52c101,-3 245,52 306,99 104,81 49,196 -22,259l13 42c27,23 41,62 62,92 24,34 45,61 73,90 1,-20 -1,-67 4,-83 8,-29 20,-32 50,-35 3,-23 1,-18 10,-33 -18,-17 -9,19 -16,-43l1 -343 51 0c-8,-46 -10,-35 15,-47l146 0 5 276c24,-7 45,-35 65,-54 175,-167 75,-224 224,-222l-43 -27c-43,-18 -118,-26 -165,-31l-717 -43c-309,-12 -649,-9 -920,96z"/>
   <path class="fil1" d="M2608 1715c-6,3 -244,131 -246,133l40 72 -86 0c2,3 4,5 5,7l11 15c14,19 3,2 17,25 -176,0 -77,-27 -200,-131l-1 84 -59 0 8 47 -169 0 -3 -101 -14 21c21,18 11,22 1,50l-80 1c-2,36 13,9 -10,29l-76 -1c-17,-23 -11,-24 -35,-45 -1,32 13,3 -8,23l-79 -10c3,58 14,18 -19,33l-146 1 -5 -30c-25,3 -51,6 -77,4 -34,-3 -34,-4 -54,-18l4 43 -389 0 3 -63c-1,2 -4,5 -5,7l-124 10 -58 -1 9 48 -175 -4 0 -123c-123,-22 -252,-166 -258,-191 -1,-4 -4,-4 -6,-6 -4,249 132,422 331,476 127,35 940,17 1178,17 291,0 708,65 775,-422z"/>
   <path class="fil2" d="M2009 939c-48,-1 -156,-34 -215,-45 -77,-13 -151,-22 -232,-27l-322 4c-82,7 -163,20 -243,39 -67,15 -163,56 -218,62 -34,30 -97,48 -137,70 -49,27 -78,54 -121,73l-376 -565c32,-45 137,-145 194,-172 51,-54 240,-153 329,-189 120,-49 271,-100 410,-117 111,-36 452,-42 575,-23 160,13 311,49 454,100 150,53 238,112 358,171 75,51 174,127 229,190l-259 609c-57,-18 -148,-71 -213,-98 -50,-21 -177,-48 -213,-82zm-1777 3c-31,30 -29,19 -38,45 -18,31 0,2 -18,23 -48,54 -83,118 -85,116 -1,-2 -4,5 -6,7l-7 1c-21,55 -72,110 -78,160l328 30c32,-14 6,8 40,-24l-76 -21 -228 -15c8,-61 163,-271 196,-293l2 -37c28,-17 28,-27 61,-41 61,67 124,212 185,268 24,13 62,-2 82,-29 2,-2 4,-6 5,-8 2,-2 5,-4 6,-9 1,-5 3,-7 5,-10 31,-7 89,-47 130,-66 42,-18 95,-41 145,-54l76 120c22,24 19,-31 19,25 27,3 9,7 21,-18l-70 -137c145,-99 834,-90 1069,11 -7,57 -46,78 -51,128 16,23 26,24 45,7l57 -117c74,12 279,86 303,137l50 28c17,-10 16,-5 50,8l154 -348c59,20 121,85 143,127 30,28 145,162 147,209 -87,10 -237,15 -308,49l17 119c2,3 3,8 4,11l24 91c59,179 -5,235 47,313l26 17 -2 -35 -10 -29c-1,-9 -1,-20 -2,-31 -1,-22 -2,-38 -4,-59 -15,-106 -49,-274 -52,-365l262 -44c41,-2 41,0 66,-21l-18 -33c-14,-17 -21,-32 -31,-47 -3,-5 -11,-16 -14,-20 -11,-19 -2,0 -14,-25l-12 -38c-37,-24 -40,-30 -65,-53 -14,-14 -4,-3 -12,-22 -74,-68 -31,-59 -171,-153 8,-84 96,-201 112,-293 -55,-71 -170,-153 -258,-211 -739,-483 -1918,-325 -2382,255 32,96 187,246 211,340 -33,14 -61,28 -76,61z"/>
   <path class="fil3" d="M1614 480c1,-3 4,-11 4,-9 9,21 64,-318 85,-357 169,2 218,40 212,165 -9,186 -44,198 -133,251l54 285 -82 -11 -30 -205c-2,-3 -21,-16 -24,-18l-21 200c-13,1 -50,1 -62,-1 -74,-13 -39,3 -47,-44l-7 40c2,40 14,24 -1,91 81,5 155,14 232,27 59,11 167,44 215,45l41 8c14,-32 12,-21 21,-53l-7 -159c-61,-10 -59,-45 -132,109l-85 -27c22,-70 258,-547 290,-582l84 28 -74 526c49,-28 91,-120 131,-162l27 -24c14,-40 43,-81 63,-125 19,-41 36,-104 76,-124 31,-12 14,9 21,-34 -120,-59 -208,-118 -358,-171 -143,-51 -294,-87 -454,-100 -12,98 -47,337 -39,431z"/>
   <path class="fil3" d="M821 300c4,37 39,155 57,182l84 -29 16 55 -85 37c10,50 62,204 84,241l81 -23 15 59c-41,20 -144,56 -184,55l-214 -590 222 -92 29 52 -105 53zm-482 78c6,30 30,74 61,85 13,-52 107,-123 186,-124 72,0 116,121 90,182 -126,6 -65,-124 -175,-108 -7,59 201,443 250,465 -10,-74 -68,-106 -54,-171 104,-43 213,159 54,237 -8,33 0,25 28,28 55,-6 151,-47 218,-62 80,-19 161,-32 243,-39 -5,-44 -16,-70 -27,-112 -4,-13 -11,-35 -14,-53 -11,-59 -9,-24 5,-40l-49 -88c-2,-2 -4,-5 -6,-6l49 218 -92 25 -151 -638 77 -19c19,42 54,115 91,140l-45 -226c-139,17 -290,68 -410,117 -89,36 -278,135 -329,189z"/>
   <path class="fil4" d="M324 1644c-1,-44 0,-79 8,-119 4,-18 8,-35 14,-52 12,-36 5,-29 28,-49 10,-109 200,-249 366,-262 185,-14 1002,-2 1256,-2 271,0 331,2 491,144 36,26 84,128 98,168 27,81 25,153 23,243 -67,487 -484,422 -775,422 -238,0 -1051,18 -1178,-17 -199,-54 -335,-227 -331,-476zm184 -483c-1,3 -4,4 -5,8 -6,25 -4,8 -11,15l-59 45c-77,46 7,55 -141,50l76 21c-34,32 -8,10 -40,24 0,33 3,24 -21,50 -15,70 -41,98 -46,188 -4,75 -3,170 11,228 3,192 221,369 421,378 257,13 544,1 804,1 177,0 653,22 794,-8 324,-69 346,-342 364,-384 16,-34 -6,-9 23,-29 -52,-78 12,-134 -47,-313l-24 -91c-1,-3 -2,-8 -4,-11l-3 27c-24,-48 -53,-64 -71,-98 -20,-12 -16,-9 -35,-26 -13,-11 -16,-15 -29,-25 -25,-19 -46,-28 -65,-42l-50 -28c-7,1 -359,-19 -360,-20 -19,17 -29,16 -45,-7 -68,36 -373,15 -481,15 -106,0 -400,26 -467,-17 -12,25 6,21 -21,18 0,-56 3,-1 -19,-25 -15,21 16,27 -89,25 -79,-2 -177,-5 -250,10 -20,-13 -23,29 -12,-35 -2,3 -4,5 -5,10 -1,5 -4,7 -6,9 -1,2 -3,6 -5,8 -20,27 -58,42 -82,29z"/>
   <path class="fil5" d="M1311 150l-1 -48c55,-1 110,0 165,1 25,0 52,-1 77,0 38,0 68,1 72,25 -9,67 21,27 -39,41 0,0 -53,-1 -60,-1l4 610 -111 5 -7 -620c-15,0 -47,3 -56,2 -31,-3 10,4 -19,-3 -30,-8 -5,5 -25,-12zm-233 -78l45 226c6,39 84,161 110,195l-34 -379 59 -2c30,41 42,275 47,326 12,115 28,231 36,347 -122,1 -56,-52 -137,-119 -14,16 -16,-19 -5,40 3,18 10,40 14,53 11,42 22,68 27,112l322 -4c15,-67 3,-51 1,-91l7 -40c19,-60 54,-198 44,-256 -8,-94 27,-333 39,-431 -123,-19 -464,-13 -575,23z"/>
   <path class="fil6" d="M997 1112c67,43 361,17 467,17 108,0 413,21 481,-15 5,-50 44,-71 51,-128 -235,-101 -924,-110 -1069,-11l70 137z"/>
   <path class="fil7" d="M2444 354l82 64 -237 502 77 43 -23 56 -183 -94 145 -322 -27 24c-40,42 -82,134 -131,162l-16 120 -60 -15c-9,32 -7,21 -21,53l-41 -8c36,34 163,61 213,82 65,27 156,80 213,98l259 -609c-55,-63 -154,-139 -229,-190 -7,43 10,22 -21,34z"/>
   <path class="fil7" d="M779 972c-28,-3 -36,5 -28,-28 -144,34 -172,-78 -221,-186 -33,-75 -122,-217 -130,-295 -31,-11 -55,-55 -61,-85 -57,27 -162,127 -194,172l376 565c43,-19 72,-46 121,-73 40,-22 103,-40 137,-70z"/>
   <path class="fil8" d="M1123 298c-37,-25 -72,-98 -91,-140l-77 19 151 638 92 -25 -49 -218c2,1 4,4 6,6l49 88c81,67 15,120 137,119 -8,-116 -24,-232 -36,-347 -5,-51 -17,-285 -47,-326l-59 2 34 379c-26,-34 -104,-156 -110,-195z"/>
   <path class="fil9" d="M374 1424c9,-4 60,-46 87,-63 43,-29 70,-39 113,-58l14 -6c271,-105 611,-108 920,-96l717 43c47,5 122,13 165,31l43 27 15 6c66,20 24,10 39,-4 -160,-142 -220,-144 -491,-144 -254,0 -1071,-12 -1256,2 -166,13 -356,153 -366,262z"/>
   <path class="fil8" d="M1790 198c71,18 60,65 37,141 -19,60 -33,100 -100,118l63 -259zm-176 282c10,58 -25,196 -44,256 8,47 -27,31 47,44 12,2 49,2 62,1l21 -200c9,-41 -19,46 4,-17l20 35 30 205 82 11 -54 -285c89,-53 124,-65 133,-251 6,-125 -43,-163 -212,-165 -21,39 -76,378 -85,357 0,-2 -3,6 -4,9z"/>
   <path class="fil0" d="M2497 1652c-26,17 -49,38 -82,23 -26,-11 -41,-57 -30,-82 25,-58 119,-53 112,59zm-300 19c36,21 52,55 80,87 21,26 58,77 85,90 2,-2 240,-130 246,-133 2,-90 4,-162 -23,-243 -14,-40 -62,-142 -98,-168 -15,14 27,24 -39,4 -29,60 -78,129 -118,186 -24,34 -40,59 -64,87 -31,39 -50,33 -69,90z"/>
   <path class="fil8" d="M400 463c8,78 97,220 130,295 49,108 77,220 221,186 159,-78 50,-280 -54,-237 -14,65 44,97 54,171 -49,-22 -257,-406 -250,-465 110,-16 49,114 175,108 26,-61 -18,-182 -90,-182 -79,1 -173,72 -186,124z"/>
   <path class="fil8" d="M2105 483c18,39 -9,157 -15,202l-73 -15 88 -187zm-34 411l60 15 16 -120 74 -526 -84 -28c-32,35 -268,512 -290,582l85 27c73,-154 71,-119 132,-109l7 159z"/>
   <path class="fil10" d="M1695 1618c-15,9 29,17 -19,6l0 -193 11 18c88,26 77,129 8,169zm-251 -262c17,25 19,13 61,23l-2 319 -46 2c4,39 177,16 207,16l29 8 43 -1c17,-15 5,6 7,-19l-13 -42c71,-63 126,-178 22,-259 -61,-47 -205,-102 -306,-99l-2 52z"/>
   <path class="fil10" d="M813 1625l-7 -187c106,43 101,136 7,187zm-179 -248l5 321 -49 2 1 34c0,2 3,6 5,8l203 -23 11 -31c50,-31 73,-30 109,-86 30,-47 35,-112 1,-159 -42,-60 -174,-124 -269,-131l-69 -8c1,73 5,44 52,73z"/>
   <path class="fil8" d="M926 247l-29 -52 -222 92 214 590c40,1 143,-35 184,-55l-15 -59 -81 23c-22,-37 -74,-191 -84,-241l85 -37 -16 -55 -84 29c-18,-27 -53,-145 -57,-182l105 -53z"/>
   <path class="fil10" d="M2197 1671c19,-57 38,-51 69,-90 24,-28 40,-53 64,-87 40,-57 89,-126 118,-186l-15 -6c-149,-2 -49,55 -224,222 -20,19 -41,47 -65,54l-5 -276 -146 0 -3 407 207 -38z"/>
   <path class="fil8" d="M1475 103c-55,-1 -110,-2 -165,-1l1 48c20,17 -5,4 25,12 29,7 -12,0 19,3 9,1 41,-2 56,-2l7 620 111 -5 -4 -610c7,0 60,1 60,1 60,-14 30,26 39,-41 -4,-24 -34,-25 -72,-25 -25,-1 -52,0 -77,0z"/>
   <path class="fil0" d="M436 1599c9,-31 13,-58 70,-36 32,12 33,34 32,75l-24 17c-3,4 17,16 -28,23 -10,2 -34,-5 -41,-9 -9,-6 -52,-58 -9,-70zm-62 -175c-23,20 -16,13 -28,49 -6,17 -10,34 -14,52 -8,40 -9,75 -8,119 2,2 5,2 6,6 6,25 135,169 258,191l-1 -30c-2,-2 -7,-5 -9,-2l-26 -7c-35,-20 -18,27 -25,-35 17,-16 -66,-19 58,-16 -32,-49 2,-47 5,-51l-4 -269c-63,-34 -61,15 -59,-83l47 4 0 -49c-43,19 -70,29 -113,58 -27,17 -78,59 -87,63z"/>
   <path class="fil8" d="M2305 603l-145 322 183 94 23 -56 -77 -43 237 -502 -82 -64c-40,20 -57,83 -76,124 -20,44 -49,85 -63,125z"/>
   <path class="fil10" d="M991 1351c3,50 -9,23 18,36l35 -6c36,42 17,266 12,289 -38,23 -30,10 -62,21l36 11c12,2 40,1 54,1 33,0 65,2 98,3 30,1 58,1 88,3 52,3 58,15 72,-18 -14,-11 -10,-11 -62,-12 -34,0 -46,3 -81,-4 -17,-44 -9,-98 -9,-146 0,-28 -2,-51 -4,-77 -3,-71 2,-57 15,-71l124 4 51 0 1 -82 -386 -1 0 49z"/>
   <path class="fil11" d="M1978 1349l-3 367 -33 19c-9,15 -7,10 -10,33l-3 64c2,2 6,-1 7,2l19 0c25,1 23,-52 24,82l110 4 59 0 1 -84 -3 -102c51,42 125,166 170,186l86 0 -40 -72c-27,-13 -64,-64 -85,-90 -28,-32 -44,-66 -80,-87l-207 38 3 -407c-25,12 -23,1 -15,47z"/>
   <path class="fil3" d="M292 1279c148,5 64,-4 141,-50 -8,-51 -54,-97 -82,-139 -23,-32 -62,-107 -91,-119 -33,22 -188,232 -196,293l228 15z"/>
   <path class="fil12" d="M997 1672c-20,31 -13,9 -5,50 8,20 19,12 49,12 7,12 5,2 9,24l-2 96 -59 9 2 43c13,28 122,14 159,14 57,0 115,2 172,-1l56 1 -2 -62 -177 1 -2 -77 3 -48 97 0 53 -3 3 -57 -152 -5 -2 -235 2 -53c-13,14 -18,0 -15,71 2,26 4,49 4,77 0,48 -8,102 9,146 35,7 47,4 81,4 52,1 48,1 62,12 -14,33 -20,21 -72,18 -30,-2 -58,-2 -88,-3 -33,-1 -65,-3 -98,-3 -14,0 -42,1 -54,-1l-36 -11c32,-11 24,2 62,-21 5,-23 24,-247 -12,-289l2 290 -49 1z"/>
   <path class="fil13" d="M2400 1169c19,14 40,23 65,42 13,10 16,14 29,25 19,17 15,14 35,26 20,-41 77,-116 105,-159 27,-39 75,-123 113,-147 -22,-42 -84,-107 -143,-127l-154 348c-34,-13 -33,-18 -50,-8z"/>
   <path class="fil3" d="M2529 1262c18,34 47,50 71,98l3 -27 -17 -119c71,-34 221,-39 308,-49 -2,-47 -117,-181 -147,-209 -38,24 -86,108 -113,147 -28,43 -85,118 -105,159z"/>
   <path class="fil11" d="M1444 1750l61 7 -1 163 119 1 57 -1 0 -56c-1,-25 -3,-50 -3,-76 0,-4 1,-28 1,-31 10,-50 -2,-12 15,-33l-29 -8c-30,0 -203,23 -207,-16 -15,18 -18,-29 -13,50z"/>
   <path class="fil11" d="M590 1700c-3,4 -37,2 -5,51l54 4 -1 164 116 1 58 1 -2 -233 -11 31 -203 23c-2,-2 -5,-6 -5,-8l-1 -34z"/>
   <path class="fil14" d="M606 1105c-11,64 -8,22 12,35 73,-15 171,-12 250,-10 105,2 74,-4 89,-25l-76 -120c-50,13 -103,36 -145,54 -41,19 -99,59 -130,66z"/>
   <path class="fil13" d="M260 971c29,12 68,87 91,119 28,42 74,88 82,139l59 -45c7,-7 5,10 11,-15 1,-4 4,-5 5,-8 -61,-56 -124,-201 -185,-268 -33,14 -33,24 -61,41l-2 37z"/>
   <path class="fil14" d="M1990 1121c1,1 353,21 360,20 -24,-51 -229,-125 -303,-137l-57 117z"/>
   <path class="fil15" d="M1457 1700l46 -2 2 -319c-42,-10 -44,2 -61,-23l-45 -6 -7 59c45,27 38,-10 62,33l3 258z"/>
   <path class="fil15" d="M590 1700l49 -2 -5 -321c-37,-4 -49,6 -60,-25l-47 -4c-2,98 -4,49 59,83l4 269z"/>
   <path class="fil16" d="M588 1841l0 123 175 4 -9 -48 -116 -1 1 -164 -54 -4c-124,-3 -41,0 -58,16 7,62 -10,15 25,35l26 7c2,-3 7,0 9,2l1 30z"/>
   <path class="fil16" d="M1454 1938l5 30 146 -1c33,-15 22,25 19,-33l-1 -13 -119 -1 1 -163 -61 -7c-55,-1 -31,-8 -51,17 6,43 1,16 27,34 36,24 34,-62 34,137z"/>
   <path class="fil16" d="M1942 1735l33 -19 3 -367 -51 0 -1 343c7,62 -2,26 16,43z"/>
   <path class="fil16" d="M997 1672l49 -1 -2 -290 -35 6c-27,-13 -15,14 -18,-36l-53 -3 0 85c52,1 43,-11 59,20l0 219z"/>
   <path class="fil16" d="M1323 1924l-1 -5c-57,3 -115,1 -172,1 -37,0 -146,14 -159,-14l-50 -2 -3 63 389 0 -4 -43z"/>
   <path class="fil16" d="M1878 1886l33 1 14 -21 3 101 169 0 -8 -47 -110 -4c-1,-134 1,-81 -24,-82l-19 0c-1,-3 -5,0 -7,-2l3 -64c-30,3 -42,6 -50,35 -5,16 -3,63 -4,83z"/>
   <path class="fil11" d="M1693 1724c8,39 36,77 53,109 8,16 16,34 25,50 21,36 11,27 39,36l83 2c-18,-26 -10,-21 -15,-35 -28,-29 -49,-56 -73,-90 -21,-30 -35,-69 -62,-92 -2,25 10,4 -7,19l-43 1z"/>
   <path class="fil16" d="M2149 1836c123,104 24,131 200,131 -14,-23 -3,-6 -17,-25l-11 -15c-1,-2 -3,-4 -5,-7 -45,-20 -119,-144 -170,-186l3 102z"/>
   <path class="fil17" d="M1727 457c67,-18 81,-58 100,-118 23,-76 34,-123 -37,-141l-63 259z"/>
   <path class="fil16" d="M1680 1864c25,25 23,24 31,57 24,21 18,22 35,45l76 1c23,-20 8,7 10,-29l-22 -19c-28,-9 -18,0 -39,-36 -9,-16 -17,-34 -25,-50 -17,-32 -45,-70 -53,-109 -17,21 -5,-17 -15,33 0,3 -1,27 -1,31 0,26 2,51 3,76z"/>
   <path class="fil12" d="M2497 1652c7,-112 -87,-117 -112,-59 -11,25 4,71 30,82 33,15 56,-6 82,-23z"/>
   <path class="fil18" d="M813 1625c94,-51 99,-144 -7,-187l7 187z"/>
   <path class="fil16" d="M1041 1734c-30,0 -41,8 -49,-12l-54 -2c0,78 -17,60 55,63 10,68 -18,63 37,70 22,-27 15,-78 11,-119z"/>
   <path class="fil17" d="M2017 670l73 15c6,-45 33,-163 15,-202l-88 187z"/>
   <path class="fil19" d="M436 1599c7,35 4,19 32,39 28,19 9,21 46,17l24 -17c1,-41 0,-63 -32,-75 -57,-22 -61,5 -70,36z"/>
   <path class="fil16" d="M1695 1618c69,-40 80,-143 -8,-169 -20,9 -3,68 2,85 14,48 8,36 6,84z"/>
   <polygon class="fil16" points="1199,1434 1327,1433 1325,1385 1201,1381 "/>
   <polygon class="fil16" points="1197,1782 1299,1780 1297,1734 1200,1734 "/>
   <path class="fil20" d="M514 1655c-37,4 -18,2 -46,-17 -28,-20 -25,-4 -32,-39 -43,12 0,64 9,70 7,4 31,11 41,9 45,-7 25,-19 28,-23z"/>
   <path class="fil0" d="M1878 1886c5,14 -3,9 15,35l-83 -2 22 19 80 -1c10,-28 20,-32 -1,-50l-33 -1z"/>
   <path class="fil0" d="M1623 1921l1 13 79 10c21,-20 7,9 8,-23 -8,-33 -6,-32 -31,-57l0 56 -57 1z"/>
   <path class="fil21" d="M1695 1618c2,-48 8,-36 -6,-84 -5,-17 -22,-76 -2,-85l-11 -18 0 193c48,11 4,3 19,-6z"/>
   <path class="fil22" d="M574 1352c11,31 23,21 60,25 -47,-29 -51,0 -52,-73l69 8c-27,-17 -24,-14 -63,-15l-14 6 0 49z"/>
   <path class="fil23" d="M1700 581c3,2 22,15 24,18l-20 -35c-23,63 5,-24 -4,17z"/>
  </g>
 </g>
</svg>
